<svg width="206" height="28" viewBox="0 0 206 28" fill="none" xmlns="http://www.w3.org/2000/svg">
<path d="M40.9531 23H36.9805V9.28906C36.9805 8.30469 37.1797 7.47656 37.5781 6.80469C37.9766 6.13281 38.5391 5.625 39.2656 5.28125C39.9922 4.92969 40.8516 4.75391 41.8438 4.75391C42.1875 4.75391 42.5117 4.77734 42.8164 4.82422C43.1211 4.87109 43.418 4.92969 43.707 5L43.7188 7.90625C43.5781 7.86719 43.4336 7.83984 43.2852 7.82422C43.1367 7.80859 42.9531 7.80078 42.7344 7.80078C42.3516 7.80078 42.0273 7.85938 41.7617 7.97656C41.4961 8.08594 41.293 8.25391 41.1523 8.48047C41.0195 8.69922 40.9531 8.96875 40.9531 9.28906V23ZM43.4141 10.3203V13.0625H35.1523V10.3203H43.4141ZM50.6914 23.2344C49.6602 23.2344 48.7383 23.0742 47.9258 22.7539C47.1133 22.4258 46.4258 21.9766 45.8633 21.4062C45.3086 20.8359 44.8828 20.1797 44.5859 19.4375C44.2969 18.6953 44.1523 17.9102 44.1523 17.082V16.6367C44.1523 15.707 44.2812 14.8477 44.5391 14.0586C44.7969 13.2617 45.1797 12.5664 45.6875 11.9727C46.1953 11.3789 46.832 10.918 47.5977 10.5898C48.3633 10.2539 49.2539 10.0859 50.2695 10.0859C51.168 10.0859 51.9727 10.2305 52.6836 10.5195C53.3945 10.8086 53.9961 11.2227 54.4883 11.7617C54.9883 12.3008 55.3672 12.9531 55.625 13.7188C55.8906 14.4844 56.0234 15.3438 56.0234 16.2969V17.9023H45.6641V15.4297H52.168V15.125C52.1758 14.7031 52.1016 14.3438 51.9453 14.0469C51.7969 13.75 51.5781 13.5234 51.2891 13.3672C51 13.2109 50.6484 13.1328 50.2344 13.1328C49.8047 13.1328 49.4492 13.2266 49.168 13.4141C48.8945 13.6016 48.6797 13.8594 48.5234 14.1875C48.375 14.5078 48.2695 14.8789 48.207 15.3008C48.1445 15.7227 48.1133 16.168 48.1133 16.6367V17.082C48.1133 17.5508 48.1758 17.9766 48.3008 18.3594C48.4336 18.7422 48.6211 19.0703 48.8633 19.3438C49.1133 19.6094 49.4102 19.8164 49.7539 19.9648C50.1055 20.1133 50.5039 20.1875 50.9492 20.1875C51.4883 20.1875 52.0195 20.0859 52.543 19.8828C53.0664 19.6797 53.5156 19.3438 53.8906 18.875L55.6836 21.0078C55.4258 21.375 55.0586 21.7305 54.582 22.0742C54.1133 22.418 53.5508 22.6992 52.8945 22.918C52.2383 23.1289 51.5039 23.2344 50.6914 23.2344ZM61.6133 13.4609V23H57.6641V10.3203H61.3555L61.6133 13.4609ZM65.3633 10.2266L65.293 13.8945C65.1367 13.8789 64.9258 13.8594 64.6602 13.8359C64.3945 13.8125 64.1719 13.8008 63.9922 13.8008C63.5312 13.8008 63.1328 13.8555 62.7969 13.9648C62.4688 14.0664 62.1953 14.2227 61.9766 14.4336C61.7656 14.6367 61.6094 14.8945 61.5078 15.207C61.4141 15.5195 61.3711 15.8828 61.3789 16.2969L60.6641 15.8281C60.6641 14.9766 60.7461 14.2031 60.9102 13.5078C61.082 12.8047 61.3242 12.1992 61.6367 11.6914C61.9492 11.1758 62.3281 10.7812 62.7734 10.5078C63.2188 10.2266 63.7188 10.0859 64.2734 10.0859C64.4688 10.0859 64.6602 10.0977 64.8477 10.1211C65.043 10.1445 65.2148 10.1797 65.3633 10.2266ZM70.6016 13.0273V23H66.6523V10.3203H70.3555L70.6016 13.0273ZM70.1328 16.2266L69.207 16.25C69.207 15.2812 69.3242 14.418 69.5586 13.6602C69.793 12.8945 70.125 12.2461 70.5547 11.7148C70.9844 11.1836 71.4961 10.7812 72.0898 10.5078C72.6914 10.2266 73.3594 10.0859 74.0938 10.0859C74.6797 10.0859 75.2148 10.1719 75.6992 10.3438C76.1914 10.5156 76.6133 10.793 76.9648 11.1758C77.3242 11.5586 77.5977 12.0664 77.7852 12.6992C77.9805 13.3242 78.0781 14.0977 78.0781 15.0195V23H74.1055V15.0078C74.1055 14.5 74.0352 14.1133 73.8945 13.8477C73.7539 13.5742 73.5508 13.3867 73.2852 13.2852C73.0195 13.1836 72.6953 13.1328 72.3125 13.1328C71.9062 13.1328 71.5625 13.2109 71.2812 13.3672C71 13.5234 70.7734 13.7422 70.6016 14.0234C70.4375 14.2969 70.3164 14.6211 70.2383 14.9961C70.168 15.3711 70.1328 15.7812 70.1328 16.2266ZM86.8555 19.8125V14.5859C86.8555 14.2266 86.8047 13.918 86.7031 13.6602C86.6016 13.4023 86.4414 13.2031 86.2227 13.0625C86.0039 12.9141 85.7109 12.8398 85.3438 12.8398C85.0469 12.8398 84.793 12.8906 84.582 12.9922C84.3711 13.0938 84.2109 13.2461 84.1016 13.4492C83.9922 13.6523 83.9375 13.9102 83.9375 14.2227H79.9883C79.9883 13.6367 80.1172 13.0938 80.375 12.5938C80.6406 12.0859 81.0156 11.6445 81.5 11.2695C81.9922 10.8945 82.5781 10.6055 83.2578 10.4023C83.9453 10.1914 84.7109 10.0859 85.5547 10.0859C86.5625 10.0859 87.4609 10.2539 88.25 10.5898C89.0469 10.9258 89.6758 11.4297 90.1367 12.1016C90.5977 12.7656 90.8281 13.6016 90.8281 14.6094V19.8008C90.8281 20.6289 90.875 21.2578 90.9688 21.6875C91.0625 22.1094 91.1953 22.4805 91.3672 22.8008V23H87.4062C87.2188 22.6094 87.0781 22.1328 86.9844 21.5703C86.8984 21 86.8555 20.4141 86.8555 19.8125ZM87.3359 15.2539L87.3594 17.3633H85.6133C85.2461 17.3633 84.9336 17.4141 84.6758 17.5156C84.4258 17.6172 84.2227 17.7578 84.0664 17.9375C83.918 18.1094 83.8086 18.3047 83.7383 18.5234C83.6758 18.7422 83.6445 18.9727 83.6445 19.2148C83.6445 19.4492 83.6992 19.6602 83.8086 19.8477C83.9258 20.0273 84.082 20.168 84.2773 20.2695C84.4727 20.3711 84.6914 20.4219 84.9336 20.4219C85.3711 20.4219 85.7422 20.3398 86.0469 20.1758C86.3594 20.0039 86.5977 19.7969 86.7617 19.5547C86.9258 19.3125 87.0078 19.0859 87.0078 18.875L87.875 20.4922C87.7188 20.8047 87.5391 21.1211 87.3359 21.4414C87.1406 21.7617 86.8945 22.0586 86.5977 22.332C86.3086 22.5977 85.9531 22.8164 85.5312 22.9883C85.1094 23.1523 84.5977 23.2344 83.9961 23.2344C83.2148 23.2344 82.4961 23.0742 81.8398 22.7539C81.1914 22.4336 80.6719 21.9883 80.2812 21.418C79.8906 20.8398 79.6953 20.1758 79.6953 19.4258C79.6953 18.7695 79.8125 18.1836 80.0469 17.668C80.2891 17.1523 80.6523 16.7148 81.1367 16.3555C81.6211 15.9961 82.2383 15.7227 82.9883 15.5352C83.7383 15.3477 84.6211 15.2539 85.6367 15.2539H87.3359ZM96.8984 13.0273V23H92.9492V10.3203H96.6523L96.8984 13.0273ZM96.4297 16.2266L95.5039 16.25C95.5039 15.2812 95.6211 14.418 95.8555 13.6602C96.0898 12.8945 96.4219 12.2461 96.8516 11.7148C97.2812 11.1836 97.793 10.7812 98.3867 10.5078C98.9883 10.2266 99.6562 10.0859 100.391 10.0859C100.977 10.0859 101.512 10.1719 101.996 10.3438C102.488 10.5156 102.91 10.793 103.262 11.1758C103.621 11.5586 103.895 12.0664 104.082 12.6992C104.277 13.3242 104.375 14.0977 104.375 15.0195V23H100.402V15.0078C100.402 14.5 100.332 14.1133 100.191 13.8477C100.051 13.5742 99.8477 13.3867 99.582 13.2852C99.3164 13.1836 98.9922 13.1328 98.6094 13.1328C98.2031 13.1328 97.8594 13.2109 97.5781 13.3672C97.2969 13.5234 97.0703 13.7422 96.8984 14.0234C96.7344 14.2969 96.6133 14.6211 96.5352 14.9961C96.4648 15.3711 96.4297 15.7812 96.4297 16.2266ZM113.855 20.0938V5H117.828V23H114.266L113.855 20.0938ZM106.074 16.8125V16.5664C106.074 15.6055 106.18 14.7305 106.391 13.9414C106.602 13.1445 106.914 12.4609 107.328 11.8906C107.742 11.3125 108.258 10.8672 108.875 10.5547C109.492 10.2422 110.203 10.0859 111.008 10.0859C111.727 10.0859 112.355 10.2539 112.895 10.5898C113.434 10.918 113.895 11.3789 114.277 11.9727C114.66 12.5664 114.973 13.2617 115.215 14.0586C115.457 14.8477 115.641 15.6992 115.766 16.6133V16.9062C115.641 17.7656 115.457 18.5781 115.215 19.3438C114.973 20.1016 114.66 20.7734 114.277 21.3594C113.895 21.9453 113.43 22.4062 112.883 22.7422C112.344 23.0703 111.711 23.2344 110.984 23.2344C110.18 23.2344 109.469 23.0742 108.852 22.7539C108.242 22.4336 107.73 21.9844 107.316 21.4062C106.91 20.8281 106.602 20.1484 106.391 19.3672C106.18 18.5859 106.074 17.7344 106.074 16.8125ZM110.023 16.5664V16.8125C110.023 17.2891 110.055 17.7305 110.117 18.1367C110.18 18.543 110.285 18.9023 110.434 19.2148C110.59 19.5195 110.793 19.7578 111.043 19.9297C111.301 20.1016 111.617 20.1875 111.992 20.1875C112.5 20.1875 112.918 20.0664 113.246 19.8242C113.582 19.582 113.828 19.2383 113.984 18.793C114.148 18.3477 114.219 17.8242 114.195 17.2227V16.2969C114.211 15.7812 114.176 15.3281 114.09 14.9375C114.004 14.5391 113.867 14.207 113.68 13.9414C113.5 13.6758 113.27 13.4766 112.988 13.3438C112.715 13.2031 112.391 13.1328 112.016 13.1328C111.648 13.1328 111.336 13.2188 111.078 13.3906C110.828 13.5625 110.625 13.8047 110.469 14.1172C110.312 14.4219 110.199 14.7852 110.129 15.207C110.059 15.6211 110.023 16.0742 110.023 16.5664ZM119.574 16.7891V16.543C119.574 15.6133 119.707 14.7578 119.973 13.9766C120.238 13.1875 120.629 12.5039 121.145 11.9258C121.66 11.3477 122.297 10.8984 123.055 10.5781C123.812 10.25 124.688 10.0859 125.68 10.0859C126.68 10.0859 127.559 10.25 128.316 10.5781C129.082 10.8984 129.723 11.3477 130.238 11.9258C130.754 12.5039 131.145 13.1875 131.41 13.9766C131.676 14.7578 131.809 15.6133 131.809 16.543V16.7891C131.809 17.7109 131.676 18.5664 131.41 19.3555C131.145 20.1367 130.754 20.8203 130.238 21.4062C129.723 21.9844 129.086 22.4336 128.328 22.7539C127.57 23.0742 126.695 23.2344 125.703 23.2344C124.711 23.2344 123.832 23.0742 123.066 22.7539C122.301 22.4336 121.66 21.9844 121.145 21.4062C120.629 20.8203 120.238 20.1367 119.973 19.3555C119.707 18.5664 119.574 17.7109 119.574 16.7891ZM123.523 16.543V16.7891C123.523 17.2656 123.559 17.7109 123.629 18.125C123.699 18.5391 123.816 18.9023 123.98 19.2148C124.145 19.5195 124.367 19.7578 124.648 19.9297C124.93 20.1016 125.281 20.1875 125.703 20.1875C126.117 20.1875 126.461 20.1016 126.734 19.9297C127.016 19.7578 127.238 19.5195 127.402 19.2148C127.566 18.9023 127.684 18.5391 127.754 18.125C127.824 17.7109 127.859 17.2656 127.859 16.7891V16.543C127.859 16.082 127.824 15.6484 127.754 15.2422C127.684 14.8281 127.566 14.4648 127.402 14.1523C127.238 13.832 127.016 13.582 126.734 13.4023C126.453 13.2227 126.102 13.1328 125.68 13.1328C125.266 13.1328 124.918 13.2227 124.637 13.4023C124.363 13.582 124.145 13.832 123.98 14.1523C123.816 14.4648 123.699 14.8281 123.629 15.2422C123.559 15.6484 123.523 16.082 123.523 16.543ZM135.793 5V6.92188C135.793 7.44531 135.688 7.98047 135.477 8.52734C135.273 9.07422 135.008 9.58984 134.68 10.0742C134.359 10.5508 134.016 10.9531 133.648 11.2812L131.914 10.3438C132.164 9.89844 132.391 9.40625 132.594 8.86719C132.805 8.32031 132.91 7.66797 132.91 6.91016V5H135.793ZM142.016 19.4375C142.016 19.2188 141.941 19.0312 141.793 18.875C141.652 18.7109 141.402 18.5625 141.043 18.4297C140.684 18.2891 140.18 18.1484 139.531 18.0078C138.914 17.875 138.332 17.6992 137.785 17.4805C137.246 17.2617 136.773 16.9961 136.367 16.6836C135.961 16.3711 135.641 16 135.406 15.5703C135.18 15.1406 135.066 14.6484 135.066 14.0938C135.066 13.5547 135.18 13.0469 135.406 12.5703C135.641 12.0859 135.98 11.6602 136.426 11.293C136.879 10.918 137.43 10.625 138.078 10.4141C138.727 10.1953 139.465 10.0859 140.293 10.0859C141.434 10.0859 142.418 10.2617 143.246 10.6133C144.074 10.957 144.711 11.4414 145.156 12.0664C145.609 12.6836 145.836 13.3984 145.836 14.2109H141.887C141.887 13.8906 141.832 13.6172 141.723 13.3906C141.621 13.1641 141.453 12.9922 141.219 12.875C140.984 12.75 140.672 12.6875 140.281 12.6875C140.008 12.6875 139.758 12.7383 139.531 12.8398C139.312 12.9414 139.137 13.082 139.004 13.2617C138.871 13.4414 138.805 13.6523 138.805 13.8945C138.805 14.0664 138.844 14.2227 138.922 14.3633C139.008 14.4961 139.137 14.6211 139.309 14.7383C139.48 14.8477 139.699 14.9492 139.965 15.043C140.23 15.1289 140.551 15.207 140.926 15.2773C141.777 15.4336 142.574 15.6562 143.316 15.9453C144.059 16.2344 144.66 16.6445 145.121 17.1758C145.59 17.707 145.824 18.4219 145.824 19.3203C145.824 19.8828 145.695 20.4023 145.438 20.8789C145.18 21.3477 144.809 21.7617 144.324 22.1211C143.84 22.4727 143.258 22.7461 142.578 22.9414C141.898 23.1367 141.133 23.2344 140.281 23.2344C139.07 23.2344 138.047 23.0195 137.211 22.5898C136.375 22.1523 135.742 21.6055 135.312 20.9492C134.891 20.2852 134.68 19.6133 134.68 18.9336H138.359C138.375 19.3242 138.469 19.6445 138.641 19.8945C138.82 20.1445 139.059 20.3281 139.355 20.4453C139.652 20.5625 139.996 20.6211 140.387 20.6211C140.746 20.6211 141.043 20.5703 141.277 20.4688C141.52 20.3672 141.703 20.2305 141.828 20.0586C141.953 19.8789 142.016 19.6719 142.016 19.4375ZM153.688 5H157.637V19.8828L157.227 23H153.688V5ZM165.418 16.5195V16.7656C165.418 17.7266 165.32 18.6016 165.125 19.3906C164.93 20.1797 164.629 20.8633 164.223 21.4414C163.816 22.0117 163.305 22.4531 162.688 22.7656C162.07 23.0781 161.34 23.2344 160.496 23.2344C159.73 23.2344 159.074 23.0703 158.527 22.7422C157.98 22.4062 157.523 21.9453 157.156 21.3594C156.789 20.7656 156.492 20.082 156.266 19.3086C156.039 18.5273 155.859 17.6914 155.727 16.8008V16.5078C155.859 15.625 156.039 14.7969 156.266 14.0234C156.492 13.2422 156.789 12.5586 157.156 11.9727C157.523 11.3789 157.977 10.918 158.516 10.5898C159.062 10.2539 159.715 10.0859 160.473 10.0859C161.324 10.0859 162.059 10.2461 162.676 10.5664C163.301 10.8867 163.816 11.3359 164.223 11.9141C164.629 12.4922 164.93 13.1719 165.125 13.9531C165.32 14.7344 165.418 15.5898 165.418 16.5195ZM161.469 16.7656V16.5195C161.469 16.0586 161.441 15.625 161.387 15.2188C161.332 14.8125 161.234 14.4531 161.094 14.1406C160.953 13.8281 160.754 13.582 160.496 13.4023C160.238 13.2227 159.902 13.1328 159.488 13.1328C159.066 13.1328 158.711 13.2031 158.422 13.3438C158.141 13.4844 157.914 13.6875 157.742 13.9531C157.578 14.2109 157.461 14.5312 157.391 14.9141C157.32 15.2891 157.289 15.7148 157.297 16.1914V17.1172C157.281 17.7656 157.34 18.3203 157.473 18.7812C157.605 19.2422 157.836 19.5938 158.164 19.8359C158.492 20.0781 158.941 20.1992 159.512 20.1992C159.934 20.1992 160.273 20.1172 160.531 19.9531C160.797 19.7891 160.996 19.5547 161.129 19.25C161.262 18.9453 161.352 18.582 161.398 18.1602C161.445 17.7383 161.469 17.2734 161.469 16.7656ZM171.348 5V23H167.387V5H171.348ZM173.293 16.7891V16.543C173.293 15.6133 173.426 14.7578 173.691 13.9766C173.957 13.1875 174.348 12.5039 174.863 11.9258C175.379 11.3477 176.016 10.8984 176.773 10.5781C177.531 10.25 178.406 10.0859 179.398 10.0859C180.398 10.0859 181.277 10.25 182.035 10.5781C182.801 10.8984 183.441 11.3477 183.957 11.9258C184.473 12.5039 184.863 13.1875 185.129 13.9766C185.395 14.7578 185.527 15.6133 185.527 16.543V16.7891C185.527 17.7109 185.395 18.5664 185.129 19.3555C184.863 20.1367 184.473 20.8203 183.957 21.4062C183.441 21.9844 182.805 22.4336 182.047 22.7539C181.289 23.0742 180.414 23.2344 179.422 23.2344C178.43 23.2344 177.551 23.0742 176.785 22.7539C176.02 22.4336 175.379 21.9844 174.863 21.4062C174.348 20.8203 173.957 20.1367 173.691 19.3555C173.426 18.5664 173.293 17.7109 173.293 16.7891ZM177.242 16.543V16.7891C177.242 17.2656 177.277 17.7109 177.348 18.125C177.418 18.5391 177.535 18.9023 177.699 19.2148C177.863 19.5195 178.086 19.7578 178.367 19.9297C178.648 20.1016 179 20.1875 179.422 20.1875C179.836 20.1875 180.18 20.1016 180.453 19.9297C180.734 19.7578 180.957 19.5195 181.121 19.2148C181.285 18.9023 181.402 18.5391 181.473 18.125C181.543 17.7109 181.578 17.2656 181.578 16.7891V16.543C181.578 16.082 181.543 15.6484 181.473 15.2422C181.402 14.8281 181.285 14.4648 181.121 14.1523C180.957 13.832 180.734 13.582 180.453 13.4023C180.172 13.2227 179.82 13.1328 179.398 13.1328C178.984 13.1328 178.637 13.2227 178.355 13.4023C178.082 13.582 177.863 13.832 177.699 14.1523C177.535 14.4648 177.418 14.8281 177.348 15.2422C177.277 15.6484 177.242 16.082 177.242 16.543ZM195.254 10.3203H198.84V22.5078C198.84 23.6797 198.57 24.6719 198.031 25.4844C197.492 26.3047 196.738 26.9258 195.77 27.3477C194.809 27.7773 193.684 27.9922 192.395 27.9922C191.824 27.9922 191.242 27.918 190.648 27.7695C190.055 27.6289 189.5 27.418 188.984 27.1367C188.469 26.8555 188.035 26.5078 187.684 26.0938L189.336 23.7734C189.656 24.1328 190.059 24.4375 190.543 24.6875C191.027 24.9453 191.598 25.0742 192.254 25.0742C192.824 25.0742 193.301 24.9727 193.684 24.7695C194.074 24.5664 194.371 24.2695 194.574 23.8789C194.777 23.4961 194.879 23.0312 194.879 22.4844V13.3203L195.254 10.3203ZM186.828 16.8125V16.5664C186.828 15.6055 186.945 14.7305 187.18 13.9414C187.422 13.1445 187.766 12.4609 188.211 11.8906C188.664 11.3125 189.211 10.8672 189.852 10.5547C190.492 10.2422 191.215 10.0859 192.02 10.0859C192.887 10.0859 193.598 10.2539 194.152 10.5898C194.715 10.918 195.164 11.3789 195.5 11.9727C195.844 12.5664 196.109 13.2617 196.297 14.0586C196.492 14.8477 196.656 15.6992 196.789 16.6133V16.9062C196.656 17.7656 196.473 18.5781 196.238 19.3438C196.012 20.1016 195.715 20.7734 195.348 21.3594C194.98 21.9453 194.52 22.4062 193.965 22.7422C193.418 23.0703 192.762 23.2344 191.996 23.2344C191.199 23.2344 190.48 23.0742 189.84 22.7539C189.207 22.4336 188.664 21.9844 188.211 21.4062C187.766 20.8281 187.422 20.1484 187.18 19.3672C186.945 18.5859 186.828 17.7344 186.828 16.8125ZM190.777 16.5664V16.8125C190.777 17.2891 190.82 17.7305 190.906 18.1367C191 18.543 191.141 18.9023 191.328 19.2148C191.516 19.5195 191.746 19.7578 192.02 19.9297C192.301 20.1016 192.629 20.1875 193.004 20.1875C193.574 20.1875 194.035 20.0664 194.387 19.8242C194.738 19.582 194.992 19.2383 195.148 18.793C195.305 18.3477 195.371 17.8242 195.348 17.2227V16.2969C195.363 15.7812 195.328 15.3281 195.242 14.9375C195.156 14.5391 195.02 14.207 194.832 13.9414C194.652 13.6758 194.41 13.4766 194.105 13.3438C193.809 13.2031 193.449 13.1328 193.027 13.1328C192.66 13.1328 192.336 13.2188 192.055 13.3906C191.773 13.5625 191.539 13.8047 191.352 14.1172C191.164 14.4219 191.02 14.7852 190.918 15.207C190.824 15.6211 190.777 16.0742 190.777 16.5664ZM205.543 5.9375L205.039 17.5977H201.828L201.324 5.9375H205.543ZM201.219 21.2305C201.219 20.668 201.422 20.1992 201.828 19.8242C202.234 19.4414 202.762 19.25 203.41 19.25C204.059 19.25 204.582 19.4414 204.98 19.8242C205.387 20.1992 205.59 20.668 205.59 21.2305C205.59 21.793 205.387 22.2656 204.98 22.6484C204.582 23.0234 204.059 23.2109 203.41 23.2109C202.762 23.2109 202.234 23.0234 201.828 22.6484C201.422 22.2656 201.219 21.793 201.219 21.2305Z" fill="#D8568D"/>
<rect x="4" y="2" width="24" height="22" rx="3" stroke="#D8568D" stroke-width="2"/>
<line x1="3" y1="8" x2="27" y2="8" stroke="#D8568D" stroke-width="2"/>
<circle cx="21" cy="5" r="1" fill="#D8568D"/>
<circle cx="18" cy="5" r="1" fill="#D8568D"/>
<circle cx="24" cy="5" r="1" fill="#D8568D"/>
<line x1="7" y1="5" x2="14" y2="5" stroke="#D8568D" stroke-width="2"/>
<line x1="7" y1="13" x2="25" y2="13" stroke="#D8568D" stroke-width="2"/>
<line x1="20" y1="16" x2="25" y2="16" stroke="#D8568D" stroke-width="2"/>
<line x1="7" y1="16" x2="18" y2="16" stroke="#D8568D" stroke-width="2"/>
<line x1="7" y1="19" x2="11" y2="19" stroke="#D8568D" stroke-width="2"/>
<line x1="13" y1="19" x2="25" y2="19" stroke="#D8568D" stroke-width="2"/>
</svg>
